<?xml version="1.0" encoding="UTF-8" standalone="no"?>
<!-- Created with Inkscape (http://www.inkscape.org/) -->

<svg
   width="187.64433mm"
   height="51.870548mm"
   viewBox="0 0 187.64433 51.870548"
   version="1.1"
   id="svg1"
   xmlns="http://www.w3.org/2000/svg"
   xmlns:svg="http://www.w3.org/2000/svg">
  <defs
     id="defs1" />
  <g
     id="layer1"
     transform="translate(-9.1129731,-97.941669)">
    <rect
       style="fill:#2b2200;fill-opacity:1;fill-rule:evenodd;stroke:none;stroke-width:9.41964"
       id="rect6"
       width="187.64435"
       height="51.870533"
       x="9.1129732"
       y="97.941666" />
    <path
       style="-inkscape-font-specification:Caladea;fill:#ffffff"
       d="m 108.40032,387.31629 0.448,-2.76267 q 4.33067,-0.52267 6.79467,-2.016 V 342.2176 q -2.76267,-1.49334 -7.24267,-2.016 0.29867,-1.792 0.37333,-2.688 h 20.83201 l -0.448,2.688 q -4.10667,0.448 -6.86933,2.016 v 40.32002 q 2.688,1.49333 7.31733,2.016 -0.29866,1.792 -0.37333,2.76267 z m 29.12001,-44.94936 q 0,-2.016 -4.62933,-2.16533 l 0.448,-2.688 h 17.54667 l -0.29866,2.688 q -4.55467,0.29866 -6.79467,2.38933 l -13.88801,17.39734 16.27734,22.54935 q 2.16533,1.568 6.34667,1.94133 l -0.448,2.83734 h -11.94667 q -0.14934,-2.01601 -1.19467,-3.58401 l -15.90401,-22.40001 14.03734,-17.47201 q 0.448,-0.896 0.448,-1.49333 z m 60.40534,-4.85333 -0.448,2.688 q -2.53866,0.448 -4.62933,1.94133 l -14.63467,45.17336 h -3.58401 l -16.128,-45.09869 q -1.568,-1.344 -4.55467,-2.016 l 0.37333,-2.688 h 18.06934 l -0.448,2.688 q -3.88267,0.52266 -6.42133,2.016 l 11.72267,33.67468 10.67734,-33.67468 q -2.98667,-1.568 -6.79467,-2.016 0.29866,-1.792 0.37333,-2.688 z m -4.70397,49.80269 0.37334,-2.76267 q 3.36,-0.52267 5.30133,-1.94134 l 13.96268,-45.09868 h 4.48 l 15.38134,45.17335 q 1.86667,1.344 4.928,1.86667 l -0.29866,2.76267 h -18.66668 l 0.37333,-2.76267 q 4.33067,-0.52267 6.86934,-2.016 l -3.808,-11.27468 h -15.08268 l -3.43466,11.27468 q 2.464,1.41866 7.24267,2.016 l -0.29867,2.76267 z m 21.05601,-39.42402 -6.048,19.48801 h 12.61867 z m 64.21326,39.94668 q -9.856,0 -14.56,-6.19733 -4.70401,-6.19734 -4.70401,-19.18935 0,-13.06667 4.70401,-19.33867 4.77866,-6.27201 14.63467,-6.27201 6.42134,0 10.60267,2.83734 4.256,2.76267 4.256,7.01867 0,2.464 -1.26933,4.18133 -1.26933,1.71734 -2.912,1.71734 -1.64267,0 -2.83734,-0.82133 -1.19466,-0.82134 -1.64266,-2.09067 1.41866,-1.94134 1.41866,-3.95734 0,-2.09067 -2.09066,-3.43467 -2.09067,-1.41866 -5.52534,-1.41866 -6.048,0 -8.96,5.30133 -2.91201,5.22667 -2.91201,16.12801 0,10.90134 2.83734,15.97867 2.912,5.07734 9.03467,5.07734 3.88267,0 7.54134,-1.792 3.73333,-1.86667 5.6,-4.33067 l 2.61333,2.83734 q -0.672,0.896 -2.53866,2.464 -1.79201,1.568 -3.50934,2.61333 -4.40533,2.688 -9.78134,2.688 z m 31.65871,0 q -4.62934,0 -7.16801,-2.24 -2.53867,-2.24 -2.53867,-6.64533 0,-4.48001 3.58401,-7.24268 3.584,-2.83733 10.37867,-3.28533 l 6.12267,-0.448 v -6.048 q 0,-3.73334 -1.568,-5.45067 -1.568,-1.71734 -5.07734,-1.71734 -6.19734,0 -6.19734,3.36001 0,1.94133 2.24001,2.76266 0,3.584 -4.25601,3.584 -1.94133,0 -3.136,-1.19466 -1.19467,-1.19467 -1.19467,-3.136 0,-3.80801 3.36001,-6.04801 3.43466,-2.31466 9.33333,-2.31466 5.97334,0 9.40801,2.688 3.43467,2.688 3.43467,7.46667 v 20.83201 q 1.71733,1.26933 5.22667,2.016 l -0.29867,2.53867 h -10.30401 l -0.74666,-3.36001 q -4.18134,3.88267 -10.60267,3.88267 z m -3.13601,-9.184 q 0,6.12267 5.00267,6.12267 3.95734,0 8.51201,-4.33067 v -9.40801 l -5.97334,0.52267 q -3.50933,0.29867 -5.52534,2.24 -2.016,1.86667 -2.016,4.85334 z m 39.34941,-35.39202 0.896,8.96001 h 7.76534 v 3.95733 h -7.76534 v 26.50668 q 1.71734,1.26933 6.04801,2.09067 l -0.224,2.53867 h -17.39734 l 0.29866,-2.68801 q 3.136,-0.52266 4.928,-1.94133 v -26.50668 h -5.52533 l -0.37334,-2.61333 q 3.88267,-0.37334 5.89867,-1.344 v -4.03201 q 0,-6.19733 2.68801,-10.00533 2.76266,-3.80801 8.43733,-3.80801 5.67467,0 8.58667,1.86667 v 7.168 h -4.10666 q -0.89601,-6.272 -5.07734,-6.272 -2.31467,0 -3.73334,1.64267 -1.344,1.568 -1.344,4.48 z m 20.30938,25.90935 v 0.37333 q 0,9.10934 2.31467,11.94667 2.16533,2.688 6.86933,2.688 2.464,0 4.85334,-0.896 2.38933,-0.896 3.584,-1.792 l 1.12,-0.82133 1.86667,2.24 q -0.52267,0.52267 -1.49334,1.344 -0.97066,0.82133 -4.032,2.24 -3.06133,1.344 -6.19733,1.344 -8.51201,0 -12.17068,-4.55467 -3.584,-4.62933 -3.584,-13.29067 0,-8.736 3.95734,-13.44001 4.032,-4.77866 11.49867,-4.77866 7.54134,0 10.528,3.88266 2.98667,3.88267 3.21067,11.49868 l -1.568,2.016 z m 8.43734,-14.41068 q -8.21334,0 -8.43734,11.64801 l 15.60534,-0.52267 q 0,-5.89867 -1.568,-8.512 -1.49334,-2.61334 -5.6,-2.61334 z"
       id="text5"
       aria-label="KVA Cafe"
       transform="matrix(0.62512955,0,0,0.62512955,-52.544458,-102.60999)" />
    <ellipse
       style="fill:#ffffff;fill-opacity:1;fill-rule:evenodd;stroke:none;stroke-width:1.75681"
       id="path7"
       cx="214.23434"
       cy="-7.5587296"
       rx="3.5280619"
       ry="5.3849368"
       transform="rotate(32.822087)" />
    <rect
       style="fill:#2b2200;fill-opacity:1;fill-rule:evenodd;stroke:none;stroke-width:3.58621"
       id="rect8"
       width="0.74274993"
       height="7.4274998"
       x="213.98849"
       y="-11.458166"
       transform="rotate(32.822087)" />
  </g>
</svg>
